<svg width="1080" height="1080" viewBox="0 0 1080 1080" fill="none" xmlns="http://www.w3.org/2000/svg">
<rect width="1080" height="1080" fill="#006235"/>
<g clip-path="url(#clip0_1_2)">
<rect width="800" height="800" transform="translate(140 140)" fill="white"/>
<path d="M880.5 54.5H73.5C15.95 54.5 60.0001 171.437 60.0001 229.012L94.5 973C94.5 1030.6 165.963 1022 223.5 1022L992 1001C1049.56 1001 1020 880.6 1020 823L1046.5 96.5125C1046.5 38.9375 938.063 54.5 880.5 54.5ZM710.8 652.787V854.1H457.725V781.487H420.55C408.267 781.484 396.104 779.062 384.757 774.358C373.409 769.654 363.1 762.761 354.416 754.073C345.733 745.385 338.846 735.072 334.148 723.722C329.45 712.372 327.034 700.209 327.038 687.925V621.638H295.238C290.162 621.634 285.294 619.62 281.7 616.035C278.106 612.451 276.079 607.588 276.063 602.513C276.063 599.85 276.538 597.338 277.488 595.075L327.038 470.3C327.038 470.3 332.163 418.612 336.825 398.825C357.45 309.8 456.713 229.012 564.325 229.012C695.25 229.012 801.438 335.212 801.438 466.25C801.438 541.925 765.988 609.375 710.8 652.787Z" fill="#006235"/>
<path d="M716.612 314.725L687.562 335.187C683.184 332.592 678.587 330.384 673.825 328.587C672.462 328.087 671.112 327.725 669.75 327.312L663.412 291.037H628.487L622.587 325.962C616.212 327.6 610.1 330 604.287 333.025L574.237 311.787L549.462 336.512L570.05 365.437C567.42 369.851 565.198 374.495 563.412 379.312C562.887 380.675 562.55 382.037 562.112 383.387L532.125 388.525V371.875L509.225 367.95C508.167 363.976 506.662 360.135 504.737 356.5L518.775 336.675L502.55 320.487L483.45 333.95C480.65 332.266 477.71 330.827 474.662 329.65C473.862 329.35 473.025 329.275 472.2 329.025L468.05 305.137H445.25L441.262 328.062C437.27 329.148 433.409 330.67 429.75 332.6L409.875 318.625L393.737 334.812L407.237 353.912C405.612 356.675 404.1 359.55 402.962 362.687C402.662 363.512 402.462 364.325 402.212 365.175L378.45 369.25V392.175L401.5 396.125C402.55 400.062 404.012 403.887 405.862 407.512L391.837 427.362L408 443.562L427.162 430.062C429.95 431.7 432.837 433.212 435.975 434.387C436.775 434.687 437.612 434.75 438.412 435.037L442.562 458.925L465.35 458.9L469.35 436C473.35 434.937 477.15 433.387 480.825 431.487L500.612 445.437L516.825 429.262L503.35 410.162C504.975 407.4 506.462 404.55 507.6 401.437C507.925 400.612 507.987 399.75 508.275 398.912L525.862 395.887V424.562L560.775 430.562C562.412 436.937 564.825 443.05 567.862 448.862L546.675 478.85L571.3 503.55L600.337 483.087C604.675 485.612 609.212 487.862 614.087 489.65C615.45 490.175 616.812 490.512 618.175 490.95L624.5 527.25H654.8L652.287 541.787C647.912 542.787 643.775 544.512 639.887 546.687L625.387 536.45L614.025 547.812L623.837 561.7C622.111 564.407 620.678 567.29 619.562 570.3C619.112 571.537 618.937 572.762 618.587 573.987L601 576.987V593.025L617.825 595.937C618.8 600.337 620.525 604.462 622.725 608.375L612.487 622.85L623.8 634.262L637.687 624.412C640.375 626.125 643.237 627.587 646.325 628.737C647.562 629.187 648.812 629.362 650.062 629.712L652.95 647.212H669.037L671.975 630.45C676.375 629.475 680.5 627.75 684.412 625.55L698.825 635.787L710.237 624.4L700.437 610.6C702.162 607.9 703.662 605.025 704.8 601.925C705.237 600.712 705.4 599.487 705.75 598.25L723.187 595.25V579.162L706.45 576.287C705.439 571.927 703.788 567.74 701.55 563.862L711.762 549.362L700.387 538L686.525 547.737C683.816 546.008 680.934 544.567 677.925 543.437C676.737 543 675.525 542.837 674.312 542.512L671.25 525.012H659.762L665.312 492.287C671.662 490.662 677.75 488.262 683.537 485.25L713.625 506.487L738.287 481.812L717.787 452.775C720.325 448.437 722.612 443.875 724.425 439C724.925 437.65 725.275 436.287 725.712 434.925L762 428.687V393.75L727.037 387.725C725.381 381.418 723.02 375.317 720 369.537L741.187 339.45L716.612 314.762V314.725ZM454.375 404.987C447.731 404.987 441.36 402.348 436.662 397.65C431.964 392.953 429.325 386.581 429.325 379.937C429.325 373.294 431.964 366.922 436.662 362.224C441.36 357.527 447.731 354.887 454.375 354.887C461.019 354.887 467.39 357.527 472.088 362.224C476.786 366.922 479.425 373.294 479.425 379.937C479.425 386.581 476.786 392.953 472.088 397.65C467.39 402.348 461.019 404.987 454.375 404.987ZM662.225 562.15C675.987 562.15 687.15 573.337 687.15 587.162C687.158 590.443 686.52 593.694 685.272 596.728C684.023 599.762 682.189 602.52 679.875 604.845C677.56 607.17 674.81 609.017 671.782 610.279C668.753 611.541 665.506 612.193 662.225 612.2C655.58 612.203 649.206 609.568 644.504 604.873C639.802 600.178 637.157 593.807 637.15 587.162C637.15 573.337 648.4 562.15 662.225 562.15ZM643.025 432.1C629.275 432.1 618.062 420.937 618.062 407.087C618.062 400.467 620.692 394.118 625.374 389.436C630.055 384.755 636.404 382.125 643.025 382.125C649.645 382.125 655.995 384.755 660.676 389.436C665.357 394.118 667.987 400.467 667.987 407.087C667.996 410.37 667.356 413.622 666.105 416.658C664.854 419.693 663.016 422.451 660.697 424.775C658.379 427.098 655.624 428.941 652.591 430.198C649.559 431.455 646.308 432.102 643.025 432.1Z" fill="#006235"/>
<path d="M388.3 464.65C381.278 464.65 374.544 467.439 369.579 472.404C364.614 477.369 361.825 484.103 361.825 491.125C361.825 498.147 364.614 504.881 369.579 509.846C374.544 514.811 381.278 517.6 388.3 517.6C395.343 517.603 402.098 514.81 407.082 509.833C412.065 504.857 414.868 498.105 414.875 491.062C414.848 484.036 412.035 477.308 407.053 472.353C402.071 467.399 395.326 464.637 388.3 464.65Z" fill="#006235"/>
</g>
<defs>
<clipPath id="clip0_1_2">
<rect width="800" height="800" fill="white" transform="translate(140 140)"/>
</clipPath>
</defs>
</svg>
